<svg xmlns="http://www.w3.org/2000/svg" height="24px" viewBox="0 -960 960 960" width="24px" fill="#666666"><path d="M525.73-509.65q18.89-18.89 18.89-45.73 0-26.85-18.89-45.74Q506.85-620 480-620q-26.85 0-45.73 18.88-18.89 18.89-18.89 45.74 0 26.84 18.89 45.73 18.88 18.88 45.73 18.88 26.85 0 45.73-18.88ZM480-172.92q112.77-98.16 178.31-199.66t65.54-175.57q0-109.77-69.5-181.2-69.5-71.42-174.35-71.42t-174.35 71.42q-69.5 71.43-69.5 181.2 0 74.07 65.54 175.57T480-172.92Zm0 53.69Q339-243.92 267.58-351.81q-71.43-107.88-71.43-196.34 0-126.93 82.66-209.39Q361.46-840 480-840q118.54 0 201.19 82.46 82.66 82.46 82.66 209.39 0 88.46-71.43 196.34Q621-243.92 480-119.23Zm0-436.15Z"/></svg>