<svg xmlns="http://www.w3.org/2000/svg" height="24px" viewBox="0 -960 960 960" width="24px" fill="#666666"><path d="M153.46-225.9q-30.38-30.51-30.38-74.1H67.69v-395.38q0-27.62 18.5-46.12 18.5-18.5 46.12-18.5h529.23v144.62h92.31l138.46 186.15V-300h-64.62q0 43.59-30.56 74.1-30.57 30.52-74.23 30.52-43.67 0-74.05-30.52-30.39-30.51-30.39-74.1H332.31q0 43.85-30.57 74.23-30.56 30.39-74.23 30.39-43.66 0-74.05-30.52Zm120.04-28.29Q292.31-273 292.31-300q0-27-18.81-45.81-18.81-18.81-45.81-18.81-27 0-45.81 18.81-18.8 18.81-18.8 45.81 0 27 18.8 45.81 18.81 18.81 45.81 18.81 27 0 45.81-18.81ZM107.69-340h25.85q8.54-26.46 34.77-45.54 26.23-19.08 59.38-19.08 31.62 0 58.62 18.7 27 18.69 35.54 45.92h299.69v-380H132.31q-9.23 0-16.93 7.69-7.69 7.69-7.69 16.93V-340Zm661.19 85.81Q787.69-273 787.69-300q0-27-18.81-45.81-18.8-18.81-45.8-18.81-27 0-45.81 18.81Q658.46-327 658.46-300q0 27 18.81 45.81 18.81 18.81 45.81 18.81 27 0 45.8-18.81ZM661.54-420H850L732.31-575.38h-70.77V-420ZM364.62-530Z"/></svg>