<svg xmlns="http://www.w3.org/2000/svg" height="24px" viewBox="0 -960 960 960" width="24px" fill="#000000"><path d="M395.08-539.69Q360-574.77 360-624.62q0-49.84 35.08-84.92 35.07-35.08 84.92-35.08t84.92 35.08Q600-674.46 600-624.62q0 49.85-35.08 84.93-35.07 35.07-84.92 35.07t-84.92-35.07ZM200-215.38v-65.85q0-24.77 14.42-46.35 14.43-21.57 38.81-33.5 56.62-27.15 113.31-40.73 56.69-13.57 113.46-13.57 56.77 0 113.46 13.57 56.69 13.58 113.31 40.73 24.38 11.93 38.81 33.5Q760-306 760-281.23v65.85H200Zm40-40h480v-25.85q0-13.31-8.58-25-8.57-11.69-23.73-19.77-49.38-23.92-101.83-36.65-52.45-12.73-105.86-12.73t-105.86 12.73Q321.69-349.92 272.31-326q-15.16 8.08-23.73 19.77-8.58 11.69-8.58 25v25.85Zm296.5-312.74q23.5-23.5 23.5-56.5t-23.5-56.5q-23.5-23.5-56.5-23.5t-56.5 23.5q-23.5 23.5-23.5 56.5t23.5 56.5q23.5 23.5 56.5 23.5t56.5-23.5Zm-56.5-56.5Zm0 369.24Z"/></svg>